<svg id="Layer_1" data-name="Layer 1" xmlns="http://www.w3.org/2000/svg" xmlns:xlink="http://www.w3.org/1999/xlink" viewBox="0 0 390.87 382.51" width="247.20000000000002" height="185.4" class="illustration styles_illustrationTablet__1DWOa"><defs><linearGradient id="linear-gradient" x1="217.25" y1="306.07" x2="250.29" y2="306.07" gradientUnits="userSpaceOnUse"><stop offset="0" stop-color="#e5c5d5"></stop><stop offset="0.42" stop-color="#ead4d1"></stop><stop offset="1" stop-color="#f0e9cb"></stop></linearGradient><linearGradient id="linear-gradient-2" x1="305.6" y1="309.07" x2="327.85" y2="309.07" xlink:href="#linear-gradient"></linearGradient><linearGradient id="linear-gradient-3" x1="267.31" y1="166.94" x2="375.63" y2="266.66" gradientUnits="userSpaceOnUse"><stop offset="0" stop-opacity="0"></stop><stop offset="0.99"></stop></linearGradient><linearGradient id="linear-gradient-4" x1="227.81" y1="160.38" x2="270.73" y2="160.38" xlink:href="#linear-gradient"></linearGradient><linearGradient id="linear-gradient-5" x1="281.16" y1="135.22" x2="319.53" y2="135.22" gradientUnits="userSpaceOnUse"><stop offset="0.02" stop-color="#fff" stop-opacity="0"></stop><stop offset="0.58" stop-color="#fff" stop-opacity="0.39"></stop><stop offset="0.68" stop-color="#fff" stop-opacity="0.68"></stop><stop offset="1" stop-color="#fff"></stop></linearGradient><linearGradient id="linear-gradient-6" x1="300.61" y1="159.5" x2="244.52" y2="38.94" xlink:href="#linear-gradient-3"></linearGradient><linearGradient id="linear-gradient-7" x1="286.19" y1="70.01" x2="315.19" y2="70.01" xlink:href="#linear-gradient"></linearGradient><linearGradient id="linear-gradient-8" x1="306.96" y1="68.04" x2="270.21" y2="17.76" xlink:href="#linear-gradient-5"></linearGradient><linearGradient id="linear-gradient-9" x1="201.07" y1="98.11" x2="289.66" y2="98.11" xlink:href="#linear-gradient-3"></linearGradient><linearGradient id="linear-gradient-10" x1="291.8" y1="145.45" x2="368.29" y2="145.45" xlink:href="#linear-gradient"></linearGradient><linearGradient id="linear-gradient-11" x1="291.7" y1="31.73" x2="311.68" y2="72.84" xlink:href="#linear-gradient-3"></linearGradient><linearGradient id="linear-gradient-12" x1="326.13" y1="190.67" x2="94.67" y2="443.41" xlink:href="#linear-gradient-3"></linearGradient><linearGradient id="linear-gradient-13" x1="288.94" y1="199.28" x2="385" y2="481.03" xlink:href="#linear-gradient-3"></linearGradient></defs><title>Going Travel</title><path d="M446.77,255.51c-6.56-25.79-24.66-47.63-30.4-73.62-5.21-23.63.3-48.16.15-72.35-.21-33.7-13-68.82-40.14-88.85-26.45-19.55-62-22-94.61-17.59s-64.24,14.8-97,18.19c-14.92,1.55-30.2,1.67-44.42,6.46-23.95,8.08-41.67,28.3-56,49.11C74.17,91.62,64.91,107.47,61.18,125c-7.78,36.64,9.52,74,9,111.4-.24,17.68-4.46,35.41-1.85,52.89,4.52,30.33,28.92,54.27,55.87,68.92,37.54,20.42,81.41,27,124.12,25.25C319.48,380.5,474.45,364.43,446.77,255.51Z" transform="translate(-59.17 -1.24)" fill="#68e1fd" opacity="0.18" style="isolation: isolate;"></path><path d="M144,331.2h0a2,2,0,0,1-.59-2.77l79-122.28,3.36,2.18-79,122.28A2,2,0,0,1,144,331.2Z" transform="translate(-59.17 -1.24)" fill="#68e1fd"></path><path d="M232.76,336.4c-43.07.54-81.78-2.06-124.56,1.19,13.34,5.16,33.53,12.91,49,14,68.8,5,138.17,6.67,207.36,5.06,4.7-.11,9.62-.27,13.67-1.81s6.82-4.94,4.85-7.7c-5.61-7.83-47.79-8.69-59.5-8.57C296.18,338.87,260.12,336.06,232.76,336.4Z" transform="translate(-59.17 -1.24)" fill="#68e1fd" opacity="0.18" style="isolation: isolate;"></path><path d="M217.71,324.31c-.42,1.51-.78,3.19,0,4.57.93,1.64,3.24,2.2,5.15,1.74s3.94-1.33,4.88-3c3.95-7,13.69-24.35,19.21-36.45,1.55-3.4,5.05-5,2.36-7.68-6.64-6.63-17.61,3.85-19.67,9.57C225.86,303.57,220.66,313.46,217.71,324.31Z" transform="translate(-59.17 -1.24)" fill="url(#linear-gradient)"></path><path d="M322,336.57c1.74,1.22,2.92-4.7,4.87-5.57,3.36-1.5-2.35-39-4.55-43.11-4.31-8-17.19-10-16.65,2.42C305.83,295.14,320.21,335.34,322,336.57Z" transform="translate(-59.17 -1.24)" fill="url(#linear-gradient-2)"></path><path d="M280,163.26c-4.8,1.89-8.54,5.77-11.66,9.87-16.35,21.49-19.45,50.92-36.08,72.2-4.27,5.47-9.47,10.47-11.85,17-4.46,12.22,4.25,27.42,17.06,29.74,4.36.8,9.07.32,13,2.3s6.34,5.88,9.68,8.67c9.7,8.12,25.14,4.79,34.65-3.56,3.65-3.21,7-7.19,11.65-8.57,6-1.78,12.61,1.31,18.75-.08,6.93-1.56,11.54-8.64,12.29-15.7s-1.58-14.06-4.28-20.62c-7.9-19.2-19.37-37.47-21.69-58.1-1-9,1-23.75-5.26-31.31C301.19,158.86,286.63,160.66,280,163.26Z" transform="translate(-59.17 -1.24)" fill="#68e1fd"></path><path d="M308.44,181.29c-.68,2.9-2.28,6-5.19,6.72-2.64.63-5.51-1-8.05-.06-3.59,1.33-3.84,6.58-6.89,8.9-1.66,1.26-3.86,1.44-5.86,2-5.06,1.44-8.94,5.4-12.58,9.2-1.41-5,2.09-9.85,4.06-14.64a26.15,26.15,0,0,0,.67-17.89,21.17,21.17,0,0,1-1.2-4.3,4.6,4.6,0,0,1,1.41-4.06,6,6,0,0,1,2.54-1,34.71,34.71,0,0,1,13-.19,86.38,86.38,0,0,0,8.67,1.62c3.54.28,5.64-1.16,8.67-2.28A31.07,31.07,0,0,1,308.44,181.29Z" transform="translate(-59.17 -1.24)" fill="url(#linear-gradient-3)"></path><path d="M212.57,325.6A29,29,0,0,0,210,330a5.19,5.19,0,0,0-.65,3,5.58,5.58,0,0,0,2.19,3.05,59.24,59.24,0,0,0,9.11,6.17c4.18,2.37,8.69,4.5,13.56,4.88a10.76,10.76,0,0,0,7.09-1.52c2-1.41,3-4.14,1.88-6.22s-4.06-2.81-6.33-4C230.58,332.21,220,315.06,212.57,325.6Z" transform="translate(-59.17 -1.24)" fill="#3e3e54"></path><path d="M320.91,332.34a4.62,4.62,0,0,0-1.7,1.58,4.91,4.91,0,0,0-.47,2.34,16.62,16.62,0,0,0,1.47,6.88,4.2,4.2,0,0,0,1.35,1.83,4.61,4.61,0,0,0,1.9.6c5.91.9,11.94.45,17.9,0,2.44-.19,5.15-.51,6.69-2.4a5.56,5.56,0,0,0,0-6.4,9.12,9.12,0,0,0-5.65-3.56c-2.09-.47-4.43.08-6.43-.46-1.57-.42-2.95-1.65-4.64-2.05A14,14,0,0,0,320.91,332.34Z" transform="translate(-59.17 -1.24)" fill="#3e3e54"></path><path d="M235.61,161.55c-1.05,5.15-1.39,10.46-2.94,15.48-1.66,5.38-4.71,10.46-4.85,16.08a3.73,3.73,0,0,0,.69,2.66c2.5,2.76,9.77-2.69,11.14-4.83,1.56-2.41,2.2-5.28,2.81-8.09l4.32-19.74c.72-3.31,1.5-6.88,3.6-9.63,2-2.55,21.34-24.64,20.31-28.22-1.7-6-26.6,15.51-29.32,19.19C238.23,148.68,236.63,156.55,235.61,161.55Z" transform="translate(-59.17 -1.24)" fill="url(#linear-gradient-4)"></path><path d="M271.72,111.77c-1.9,7.63-1,15.64-.41,23.49q1.05,13.19,1.12,26.42c0,5,.11,10.51,3.39,14.3,4.5,5.2,12.7,4.64,19.33,2.78a18.61,18.61,0,0,0,6.72-3c4.36-3.47,5.28-9.62,5.76-15.18a364.6,364.6,0,0,0,.93-47.21c-.46-10.06-4.19-23.89-17.15-22.94C282.29,91.07,273.7,103.89,271.72,111.77Z" transform="translate(-59.17 -1.24)" fill="#68e1fd"></path><path d="M307.62,160.55c-.47,5.55-1.38,11.71-5.75,15.18a18.58,18.58,0,0,1-6.73,3c-6.62,1.86-14.82,2.42-19.32-2.79-3.28-3.78-3.37-9.28-3.39-14.29,0-5.37-.17-10.73-.45-16.1q-.25-5.18-.66-10.32c-.63-7.84-1.5-15.86.41-23.48,1.44-5.8,6.47-14.25,12.64-18.59a14.05,14.05,0,0,1,7-2.79c13-1,16.69,12.88,17.15,22.95A362.74,362.74,0,0,1,307.62,160.55Z" transform="translate(-59.17 -1.24)" fill="url(#linear-gradient-5)"></path><path d="M291.71,97.21a53.05,53.05,0,0,1-5.75,10.3,18.17,18.17,0,0,0-2.72,4.68,17,17,0,0,0-.33,6.17c.57,9-.53,19.1-7.22,25.2a7.77,7.77,0,0,1-3.71,2q-.25-5.18-.66-10.32c-.63-7.84-1.5-15.86.41-23.48,1.44-5.8,6.47-14.25,12.64-18.59,1-.1,2-.16,2.94-.17C291.57,93,293.54,92.74,291.71,97.21Z" transform="translate(-59.17 -1.24)" fill="url(#linear-gradient-6)"></path><path d="M312.84,45.79c.8,5.48,1.57,14.91,2.14,20.41.27,2.65.49,5.49-.78,7.84A9.29,9.29,0,0,1,310,77.8a32.46,32.46,0,0,1-5.46,1.84c-1.59.45-3.31,1-4.21,2.43a7.07,7.07,0,0,0-.81,3.47l-.32,5.3c-.09,1.52-1.61,3-3,3.57a6.91,6.91,0,0,1-4.47,0,7.31,7.31,0,0,1-3.39-2,8.89,8.89,0,0,1-1.84-4.86,40.06,40.06,0,0,1,.61-12.3,43.51,43.51,0,0,1,1.42-5.86c.58-1.76,1.33-3.47,2.08-5.18a32.24,32.24,0,0,1,2.93-5.58,32.4,32.4,0,0,1,5.06-5.28,25.41,25.41,0,0,1,6.23-4.56C307.43,47.57,310.69,43.81,312.84,45.79Z" transform="translate(-59.17 -1.24)" fill="url(#linear-gradient-7)"></path><path d="M325.68,34.26c-6.51,6.54-14.2,11.77-21.83,17-3.55,2.41-7.11,4.83-10.85,6.93a81.24,81.24,0,0,1-35.14,10.1c-.57-1.34,1.29-2.64,2.6-3.28l12.28-6a3.5,3.5,0,0,0,1.44-1,3.47,3.47,0,0,0,.27-2.6c-.82-5.07-2.24-10.54,0-15.15,1.81-3.68,5.56-5.92,9.15-7.9,3-1.67,6.4-3.34,9.77-2.63s5.74,3.57,7.72,6.36a5.12,5.12,0,0,0,1.76,1.79,4.21,4.21,0,0,0,1.68.34c7.83.33,14.37-5.53,21.66-8.37a2.54,2.54,0,0,1,1.57-.23c1.36.39,1.11,2.54.07,3.51S326.68,33.25,325.68,34.26Z" transform="translate(-59.17 -1.24)" fill="#68e1fd"></path><path d="M327.86,33.1c-1,1-1.17.15-2.18,1.15-6.52,6.55-14.2,11.78-21.84,17-3.55,2.41-7.09,4.82-10.84,6.93a81.57,81.57,0,0,1-35.14,10.11c-.57-1.35,1.29-2.66,2.6-3.29l12.28-6a3.74,3.74,0,0,0,1.44-1,3.45,3.45,0,0,0,.27-2.61c-.82-5.07-2.24-10.54,0-15.15,1.8-3.68,5.55-5.92,9.15-7.9,3-1.67,6.38-3.34,9.76-2.62s5.75,3.56,7.72,6.35a5.2,5.2,0,0,0,1.76,1.79,3.38,3.38,0,0,0,.7.23,5.36,5.36,0,0,0,1,.11c7.06.3,13.09-4.46,19.57-7.47.69-.33,1.39-.62,2.09-.9a2.48,2.48,0,0,1,1.55-.23C329.16,30,328.9,32.12,327.86,33.1Z" transform="translate(-59.17 -1.24)" fill="url(#linear-gradient-8)"></path><path d="M307.59,55a24.57,24.57,0,0,0-10.2,15.64c-.6,3.23-.53,6.55-1.1,9.78a25.66,25.66,0,0,1-12,17.37c-2.42,1.43-5.15,2.51-7,4.63s-2.65,5.32-3.23,8.26c-1.82,9.24-3.48,19-9.28,26.41a26.83,26.83,0,0,1-16.65,10,24.36,24.36,0,0,1-18.72-4.74,27.08,27.08,0,0,1-8.93-13.83c-2.2-7.68-1-17,5.39-21.91A20,20,0,0,1,236,103c2.18-.22,4.7-.37,6-2.14a7.51,7.51,0,0,0,1-3,57.14,57.14,0,0,1,2.69-9.24c.87-2.27,2-4.6,4-6s4.76-1.51,7.21-2.14a16.63,16.63,0,0,0,9.78-7.11c2.63-4.16,6.24-4.93,10.24-7.79A29.26,29.26,0,0,1,281.1,63,36.71,36.71,0,0,1,286.52,61c7.35-2.3,15.22-7.71,21.49-12.18C308,50,307.62,53.82,307.59,55Z" transform="translate(-59.17 -1.24)" fill="#3e3e54"></path><path d="M307.59,55a24.57,24.57,0,0,0-10.2,15.64c-.6,3.23-.53,6.55-1.1,9.78a25.66,25.66,0,0,1-12,17.37c-2.42,1.43-5.15,2.51-7,4.63s-2.65,5.32-3.23,8.26c-1.82,9.24-3.48,19-9.28,26.41a26.83,26.83,0,0,1-16.65,10,24.36,24.36,0,0,1-18.72-4.74,27.08,27.08,0,0,1-8.93-13.83c-2.2-7.68-1-17,5.39-21.91A20,20,0,0,1,236,103c2.18-.22,4.7-.37,6-2.14a7.51,7.51,0,0,0,1-3,57.14,57.14,0,0,1,2.69-9.24c.87-2.27,2-4.6,4-6s4.76-1.51,7.21-2.14a16.63,16.63,0,0,0,9.78-7.11c2.63-4.16,6.24-4.93,10.24-7.79A29.26,29.26,0,0,1,281.1,63,36.71,36.71,0,0,1,286.52,61c7.35-2.3,15.22-7.71,21.49-12.18C308,50,307.62,53.82,307.59,55Z" transform="translate(-59.17 -1.24)" fill="url(#linear-gradient-9)"></path><path d="M293.72,95.07c-2,2.67-2.27,6.27-1.6,9.52a36,36,0,0,0,3.78,9.15l18.69,35.49c5.84,11.07,11.89,22.43,21.35,30.62a52,52,0,0,0,10,6.77,13.46,13.46,0,0,1,2,1.19c1.57,1.23,2.37,3.16,3.46,4.83a15.46,15.46,0,0,0,16.72,6.24c.72-2.6-1.05-5.22-3-7.07s-4.3-3.52-5.24-6.05A1.6,1.6,0,1,0,363,185a3.13,3.13,0,0,0-1-1.36,23.36,23.36,0,0,0-4.38-3.63c-1.71-1-3.64-1.54-5.34-2.53a20.54,20.54,0,0,1-5.22-4.76A85.94,85.94,0,0,1,337,157.87c-2.5-4.65-4.58-9.55-7.46-14-2.57-4-5.78-7.54-7.88-11.78-3.76-7.55-3.66-16.41-6.24-24.44-1.52-4.75-4.56-11.82-8.88-14.72C302.65,90.36,296.47,91.33,293.72,95.07Z" transform="translate(-59.17 -1.24)" fill="url(#linear-gradient-10)"></path><path d="M316.42,56.77a1.12,1.12,0,0,1,.67.19,1.06,1.06,0,0,1,.28.57,11.53,11.53,0,0,1,.31,3.79c-.09,1.16-.67,2.57-1.83,2.56a2.15,2.15,0,0,1-1.28-.55c-1.4-1.12-2-3.18-2.77-4.8,0-.05-8.85,1.4-9.59,1.53-1.7.28-2.51.65-1.29-.48C304.45,56.28,311.83,56.51,316.42,56.77Z" transform="translate(-59.17 -1.24)" fill="#3e3e54"></path><path d="M229.82,193.57l-9.31,13.35,5,3.61,9.3-12.28C234.11,196.48,231.09,193.54,229.82,193.57Z" transform="translate(-59.17 -1.24)" fill="#68e1fd"></path><path d="M229.82,193.57l-9.31,13.35,5,3.61,9.3-12.28C234.11,196.48,231.09,193.54,229.82,193.57Z" transform="translate(-59.17 -1.24)" fill="#3e3e54"></path><path d="M193.84,250l-14.22-7.57a16.62,16.62,0,0,0-22,5.95l-32.88,53.3a10.5,10.5,0,0,0,3.32,14.37l16.66,10.43Z" transform="translate(-59.17 -1.24)" fill="#3e3e54"></path><circle cx="82.23" cy="329.81" r="5.57" fill="#3e3e54"></circle><circle cx="82.22" cy="329.51" r="2.54" fill="#68e1fd"></circle><circle cx="175.46" cy="191.99" r="4.81" fill="#68e1fd"></circle><path d="M324.14,30.72a3.46,3.46,0,0,1-.69,1.38,45.9,45.9,0,0,1-7.61,7.19c-4.92,4-9.86,8-15,11.7-8.15,5.84-17.5,11.07-27.52,10.65a35.53,35.53,0,0,1,3.59-4,12.63,12.63,0,0,1,2.93-2.23,22.73,22.73,0,0,1,3.45-1.21c5.45-1.7,10.21-5.1,14.64-8.72,1.39,0,4.09-4,4.63-5.12s.7-1.78,1-2.32a5.36,5.36,0,0,0,1,.11C311.63,38.49,317.66,33.73,324.14,30.72Z" transform="translate(-59.17 -1.24)" fill="url(#linear-gradient-11)"></path><path d="M265.08,219c2.72-6,5.79-11.9,7.63-18.24s2.38-13.28,0-19.44c-8.38,11.65-11.54,26.12-15.7,39.85s-10.11,27.92-21.9,36.11c-4.6,3.19-10.3,5.75-12.34,11s.54,11.21,4.72,14.84,9.65,5.33,15,6.78,10.85,2.8,15.43,5.9c3.89,2.64,7.07,6.51,11.54,8,7.29,2.4,14.84-2.4,20.93-7.1,3.65-2.82,7.66-6.67,6.82-11.2a16.63,16.63,0,0,1-20.37-3.15c-5-5.71-5.38-14-5.82-21.62a244.82,244.82,0,0,0-3.34-28.57c-5.18,7.22-5.76,16.64-6.16,25.52L260.84,273c-.17,3.7.74,10.81-2,13.73-5.48,5.91-9.11-5.56-9.17-9.75C249.47,257.82,257.3,236.11,265.08,219Z" transform="translate(-59.17 -1.24)" fill="url(#linear-gradient-12)"></path><path d="M286.09,235.68c2.19,11.25,6.52,22.06,8,33.43.66,5.1,1.26,11.13,5.72,13.69a15.29,15.29,0,0,0,4.36,1.43c6.61,1.43,13.83,2.79,19.88-.24,7.09-3.56,10.23-13.34,6.52-20.36l-3.08,8.06c-.37.95-.84,2-1.81,2.33-1.64.55-2.95-1.39-3.6-3l-7-17.29c-3.15,5.22.85,11.74,1.08,17.84a5.17,5.17,0,0,1-.61,3c-1.14,1.81-3.88,2-5.73.9s-3-3-4-4.88a119.46,119.46,0,0,1-13.61-70.89c.37-3,.85-6.11.38-9.13-.44-2.79-2-6.19-4.77-7.21-.39,3.75.32,7.55-.26,11.32-.64,4.07-1.79,8-2.32,12.13A90.82,90.82,0,0,0,286.09,235.68Z" transform="translate(-59.17 -1.24)" fill="url(#linear-gradient-13)"></path></svg>